# xmcd
#
# Track frame offsets:
#	150
#	23608
#	51497
#	75388
#	93001
#	125176
#	138592
#	162336
#	185074
#	202384
#	217994
#
# Disc length: 3235 seconds
# Revision: 0
# Processed by: cddbd v1.5.2PL0 Copyright (c) Steve Scherf et al.
# Submitted via: dBpowerAMP V12.0
#
DISCID=9f0ca10b
DTITLE=Steve Freund - Come On In This House
DYEAR=2012
DGENRE=Blues
TTITLE0=Worried About That Gal
TTITLE1=Come On In This House
TTITLE2=Easy Rider
TTITLE3=Call My Job
TTITLE4=Turtle Blues
TTITLE5=Dangerous Man
TTITLE6=Play It Cool
TTITLE7=Cleanhead Blues
TTITLE8=Blues Stay Away From Me
TTITLE9=Some Other Day, Some Other Time
TTITLE10=Evil Ways
EXTD=
EXTT0=
EXTT1=
EXTT2=
EXTT3=
EXTT4=
EXTT5=
EXTT6=
EXTT7=
EXTT8=
EXTT9=
EXTT10=
PLAYORDER=
